# xmcd CD database file
#
# Track frame offsets:
#	150
#	9675
#	20693
#	32325
#	42645
#	55063
#	69485
#	80750
#	94915
#	107095
#	118533
#	131478
#
# Disc length: 1932 seconds
#
# Revision: 2
# Processed by: cddbd v1.5PL3 Copyright (c) Steve Scherf et al.
# Submitted via: CDex 1.50
#
DISCID=9e078a0c
DTITLE=Bo Diddley - Go Bo Diddley
DYEAR=1986
DGENRE=R&B
TTITLE0=Crackin' Up
TTITLE1=I'm Sorry
TTITLE2=Bo's Guitar
TTITLE3=Willie And Lillie
TTITLE4=You Don't Love Me (You Don't Care)
TTITLE5=Say Man
TTITLE6=The Great Grandfather
TTITLE7=Oh Yea
TTITLE8=Don't Let It Go
TTITLE9=Little Girl
TTITLE10=Dearest Darling
TTITLE11=The Clock Strikes Twelve
EXTD=YEAR: 1986
EXTT0=
EXTT1=
EXTT2=
EXTT3=
EXTT4=
EXTT5=
EXTT6=
EXTT7=
EXTT8=
EXTT9=
EXTT10=
EXTT11=
PLAYORDER=
